<?xml version="1.0" encoding="UTF-8" standalone="no"?>
<!DOCTYPE svg PUBLIC "-//W3C//DTD SVG 1.1//EN" "http://www.w3.org/Graphics/SVG/1.1/DTD/svg11.dtd">
<svg version="1.1" xmlns="http://www.w3.org/2000/svg" xmlns:xlink="http://www.w3.org/1999/xlink" preserveAspectRatio="xMidYMid meet" viewBox="0 0 640 640" width="640" height="640"><defs><path d="M109.18 143.75C-43.07 253.16 20.06 477.96 165.96 532.32C311.85 586.69 499.55 555.98 552.38 454.98C642.63 282.41 472.75 317.01 406.59 277.03C307.96 217.43 261.42 34.34 109.18 143.75Z" id="a3ty79SHd"></path><path d="M109.18 143.75C-43.07 253.16 20.06 477.96 165.96 532.32C311.85 586.69 499.55 555.98 552.38 454.98C642.63 282.41 472.75 317.01 406.59 277.03C307.96 217.43 261.42 34.34 109.18 143.75Z" id="a8dVWK0Le"></path><path d="M231.1 444.54C231.1 444.54 454.27 450.26 436.83 238.21C436.83 238.21 634.26 265.75 608.94 406.03C578.23 576.29 181.72 641.26 6.54 488.86C51.45 480 90.64 404.53 231.1 444.54Z" id="anHcrzJLY"></path><path d="M119.5 132.31C-32.74 241.73 30.39 466.52 176.28 520.88C322.18 575.25 509.88 544.54 562.7 443.54C652.96 270.97 483.07 305.57 416.91 265.59C318.3 205.99 271.75 22.9 119.5 132.31Z" id="dIoc6qWSb"></path><linearGradient id="gradientf1V6MmRg6a" gradientUnits="userSpaceOnUse" x1="31.7" y1="322.79" x2="588.55" y2="322.79"><stop style="stop-color: #00bfc2;stop-opacity: 1" offset="0%"></stop><stop style="stop-color: #00bbc5;stop-opacity: 1" offset="24.6%"></stop><stop style="stop-color: #00afcf;stop-opacity: 1" offset="49%"></stop><stop style="stop-color: #009bdf;stop-opacity: 1" offset="73.2%"></stop><stop style="stop-color: #0080f5;stop-opacity: 1" offset="97.2%"></stop><stop style="stop-color: #007cf8;stop-opacity: 1" offset="100%"></stop></linearGradient><path d="M118.24 131.15C-34 240.56 29.13 465.35 175.02 519.72C320.92 574.09 508.62 543.37 561.44 442.38C651.7 269.8 481.81 304.4 415.64 264.43C317.04 204.83 270.49 21.73 118.24 131.15Z" id="b4wgxLnaWq"></path><linearGradient id="gradiente3l0bpzM0A" gradientUnits="userSpaceOnUse" x1="30.43" y1="321.63" x2="587.29" y2="321.63"><stop style="stop-color: #fadd4b;stop-opacity: 1" offset="0%"></stop><stop style="stop-color: #00bbc5;stop-opacity: 1" offset="24.6%"></stop><stop style="stop-color: #00afcf;stop-opacity: 1" offset="49%"></stop><stop style="stop-color: #009bdf;stop-opacity: 1" offset="73.2%"></stop><stop style="stop-color: #0080f5;stop-opacity: 1" offset="97.2%"></stop><stop style="stop-color: #007cf8;stop-opacity: 1" offset="100%"></stop></linearGradient><path d="M240.35 436.4C240.35 436.4 463.52 442.12 446.08 230.06C446.08 230.06 643.51 257.61 618.19 397.89C587.47 568.15 190.96 633.11 15.79 480.72C60.7 471.85 99.89 396.39 240.35 436.4Z" id="atQLJdTi"></path><path d="M201.05 213.14C201.05 220.23 195.3 225.97 188.21 225.96C188.21 225.96 188.21 225.96 188.21 225.96C170.67 225.96 30.38 225.96 12.85 225.96C5.76 225.98 0.01 220.24 0 213.16C0 213.15 0 213.15 0 213.14C0 204.92 0 139.14 0 130.91C0 123.83 5.75 118.09 12.84 118.09C12.84 118.09 12.84 118.09 12.85 118.09C30.38 118.09 170.67 118.09 188.21 118.09C195.29 118.08 201.04 123.82 201.05 130.9C201.05 130.91 201.05 130.91 201.05 130.91C201.05 147.36 201.05 204.92 201.05 213.14Z" id="aENSnF1SL"></path><path d="M201.05 138.03L0 138.03C0 133.76 0 131.39 0 130.91C0 123.83 5.75 118.09 12.84 118.09C12.84 118.09 12.84 118.09 12.85 118.09C30.38 118.09 170.67 118.09 188.21 118.09C195.29 118.08 201.04 123.82 201.05 130.9C201.05 130.91 201.05 130.91 201.05 130.91C201.05 131.86 201.05 134.24 201.05 138.03Z" id="e1dB5Ziwpa"></path><path d="M11.33 126.32C9.84 126.32 8.64 127.52 8.64 129.01C8.64 130.5 9.84 131.7 11.33 131.7C12.82 131.7 14.03 130.5 14.03 129.01C14.03 127.52 12.82 126.32 11.33 126.32Z" id="c5VP8pcwek"></path><path d="M22.11 126.32C20.62 126.32 19.42 127.52 19.42 129.01C19.42 130.5 20.62 131.7 22.11 131.7C23.6 131.7 24.81 130.5 24.81 129.01C24.81 127.52 23.6 126.32 22.11 126.32Z" id="agDfRKRbL"></path><path d="M32.9 126.32C31.41 126.32 30.2 127.52 30.2 129.01C30.2 130.5 31.41 131.7 32.9 131.7C34.38 131.7 35.59 130.5 35.59 129.01C35.59 127.52 34.38 126.32 32.9 126.32Z" id="a1QckUmfqf"></path><path d="M67.69 149.95C69.01 149.95 70.08 151.02 70.08 152.33C70.08 152.33 70.08 152.33 70.08 152.33C70.08 155.6 70.08 181.74 70.08 185.01C70.08 186.32 69.01 187.39 67.69 187.39C67.69 187.39 67.69 187.39 67.69 187.39C63.66 187.39 31.36 187.39 27.33 187.39C26.01 187.39 24.94 186.32 24.94 185C24.94 181.74 24.94 155.6 24.94 152.34C24.94 151.02 26 149.95 27.32 149.95C27.32 149.95 27.33 149.95 27.33 149.95C27.33 149.95 63.66 149.95 67.69 149.95Z" id="f78vjxjJ61"></path><path d="M24.95 204.91C23.38 204.91 22.11 203.64 22.11 202.07C22.11 202.07 22.11 202.07 22.11 202.07C22.11 200.51 23.38 199.24 24.95 199.24C39.78 199.24 158.42 199.24 173.25 199.24C174.82 199.24 176.09 200.51 176.09 202.07C176.09 202.07 176.09 202.07 176.09 202.07C176.09 203.64 174.82 204.91 173.25 204.91C143.59 204.91 39.78 204.91 24.95 204.91Z" id="b1fKXFp8Ik"></path><path d="M83.28 183.48C81.71 183.48 80.44 182.21 80.44 180.65C80.44 180.65 80.44 180.65 80.44 180.65C80.44 179.08 81.71 177.81 83.28 177.81C92.28 177.81 164.25 177.81 173.25 177.81C174.82 177.81 176.09 179.08 176.09 180.65C176.09 180.65 176.09 180.65 176.09 180.65C176.09 182.21 174.82 183.48 173.25 183.48C155.26 183.48 92.28 183.48 83.28 183.48Z" id="e8BDSEnrb"></path><path d="M83.28 163.35C81.71 163.35 80.44 162.08 80.44 160.52C80.44 160.52 80.44 160.52 80.44 160.52C80.44 158.95 81.71 157.68 83.28 157.68C88.85 157.68 133.43 157.68 139 157.68C140.57 157.68 141.84 158.95 141.84 160.52C141.84 160.52 141.84 160.52 141.84 160.52C141.84 162.08 140.57 163.35 139 163.35C127.86 163.35 88.85 163.35 83.28 163.35Z" id="a3B5zwvroX"></path><path d="M415.9 120.32C419.17 116.54 422.64 112.94 426.29 109.52C433.4 103.41 441.55 92.6 467.62 100.56C469.64 101.22 471.63 101.97 473.57 102.83C475.85 103.81 482.99 103.83 490.28 98.04C501.86 88.84 506.4 81.9 522.27 81.68C540.74 81.43 543.65 104.46 558.01 110.35C567.16 114.1 591.26 117.83 596.24 119.5C560.17 119.67 451.97 120.16 415.9 120.32Z" id="a3TKpaflqK"></path><path d="M272.05 185.31C271.25 187.6 270.81 188.87 270.72 189.12C269.39 192.55 266.72 195.28 263.31 196.66C263.31 196.66 263.31 196.66 263.31 196.66C266.72 198.05 269.39 200.77 270.72 204.2C270.81 204.45 271.25 205.73 272.05 208.02C272.85 205.73 273.29 204.45 273.38 204.2C274.71 200.77 277.39 198.05 280.8 196.66C280.8 196.66 280.8 196.66 280.8 196.66C277.39 195.28 274.71 192.55 273.38 189.12C273.2 188.61 272.76 187.34 272.05 185.31Z" id="bm6vucT9"></path><path d="M151.65 403.48C150.86 405.77 150.42 407.04 150.33 407.3C149.01 410.72 146.33 413.45 142.93 414.84C142.93 414.84 142.93 414.84 142.93 414.84C146.33 416.22 149.01 418.95 150.33 422.37C150.42 422.63 150.86 423.9 151.66 426.19C152.46 423.9 152.91 422.63 152.99 422.37C154.32 418.95 157 416.22 160.4 414.84C160.4 414.84 160.4 414.84 160.4 414.84C156.99 413.45 154.31 410.73 152.98 407.3C152.8 406.79 152.36 405.52 151.65 403.48Z" id="aRehJXvTi"></path><path d="M513.04 381.78C512.52 383.3 512.22 384.14 512.17 384.3C511.29 386.56 509.53 388.36 507.28 389.28C507.28 389.28 507.28 389.28 507.28 389.28C509.53 390.19 511.29 391.99 512.17 394.25C512.22 394.42 512.52 395.26 513.04 396.77C513.57 395.26 513.87 394.42 513.92 394.25C514.8 391.99 516.56 390.19 518.81 389.28C518.81 389.28 518.81 389.28 518.81 389.28C516.56 388.36 514.8 386.56 513.92 384.3C513.81 383.97 513.51 383.13 513.04 381.78Z" id="frdywQYWH"></path><path d="M93.92 255.14C93.4 256.65 93.1 257.49 93.05 257.66C92.17 259.92 90.41 261.72 88.16 262.63C88.16 262.63 88.16 262.63 88.16 262.63C90.41 263.55 92.17 265.34 93.05 267.6C93.1 267.77 93.4 268.61 93.92 270.12C94.45 268.61 94.75 267.77 94.8 267.6C95.68 265.34 97.45 263.55 99.69 262.63C99.69 262.63 99.69 262.63 99.69 262.63C97.45 261.72 95.68 259.92 94.8 257.66C94.69 257.32 94.39 256.48 93.92 255.14Z" id="jjQ7Ajnlx"></path><path d="M296.55 51.3C292.01 51.29 288.32 54.98 288.31 59.52C288.31 59.52 288.31 59.53 288.31 59.53C288.31 64.04 288.31 100.11 288.31 104.62C288.31 109.16 292 112.85 296.55 112.85C296.55 112.85 296.55 112.85 296.55 112.85C296.85 112.85 298.35 112.85 301.04 112.85L301.04 133.48L321.68 112.85C356.68 112.85 376.12 112.85 380.01 112.85C384.55 112.85 388.25 109.17 388.25 104.63C388.25 104.62 388.25 104.62 388.25 104.62C388.25 100.11 388.25 64.04 388.25 59.53C388.25 54.98 384.57 51.3 380.02 51.3C380.02 51.3 304.9 51.3 296.55 51.3Z" id="a1EiWoC2dn"></path><path d="M327.96 95.47C329.48 95.47 330.71 96.7 330.71 98.22C330.71 98.22 330.71 98.22 330.71 98.22C330.71 98.22 330.71 98.22 330.71 98.22C330.71 99.74 329.48 100.97 327.96 100.97C327.96 100.97 327.96 100.97 327.96 100.97C325.99 100.97 310.24 100.97 308.27 100.97C306.75 100.97 305.52 99.74 305.52 98.22C305.52 98.22 305.52 98.22 305.52 98.22C305.52 98.22 305.52 98.22 305.52 98.22C305.52 96.7 306.75 95.47 308.27 95.47C308.27 95.47 308.27 95.47 308.27 95.47C312.21 95.47 325.99 95.47 327.96 95.47Z" id="b74b4prqx"></path><path d="M344.56 81.69C346.08 81.69 347.31 82.93 347.31 84.45C347.31 84.45 347.31 84.45 347.31 84.45C347.31 84.45 347.31 84.45 347.31 84.45C347.31 85.96 346.08 87.2 344.56 87.2C344.56 87.2 344.56 87.2 344.56 87.2C340.93 87.2 311.9 87.2 308.27 87.2C306.75 87.2 305.52 85.96 305.52 84.45C305.52 84.45 305.52 84.45 305.52 84.45C305.52 84.45 305.52 84.45 305.52 84.45C305.52 82.93 306.75 81.69 308.27 81.69C308.27 81.69 308.27 81.69 308.27 81.69C315.53 81.69 340.93 81.69 344.56 81.69Z" id="a5d4O6YPEr"></path><path d="M370.64 68.31C372.16 68.31 373.39 69.54 373.39 71.06C373.39 71.06 373.39 71.06 373.39 71.06C373.39 72.58 372.16 73.81 370.64 73.81C364.41 73.81 314.51 73.81 308.27 73.81C306.75 73.81 305.52 72.58 305.52 71.06C305.52 71.06 305.52 71.06 305.52 71.06C305.52 71.06 305.52 71.06 305.52 71.06C305.52 69.54 306.75 68.31 308.27 68.31C308.27 68.31 308.27 68.31 308.27 68.31C320.74 68.31 364.41 68.31 370.64 68.31Z" id="d8hdmtOw"></path><path d="M328.26 438.19C386.25 438.19 418.47 438.19 424.91 438.19C444.3 438.19 460.59 423.6 462.71 404.32C463.64 394.65 468.28 346.3 476.64 259.26L380.05 259.26L378.08 343.37L328.26 438.19Z" id="b1KV4dVEeT"></path><path d="M341.07 436.17C349.88 435.9 354.78 435.75 355.76 435.72C361.43 435.52 367.83 435.46 374.81 435.3C376.32 435.27 383.83 435.13 397.36 434.87L422.52 434.64L424.16 434.64L424.82 434.64C425.31 434.62 425.58 434.6 425.64 434.6C426.69 434.51 427.93 434.53 428.85 434.36C429.78 434.2 430.72 434.11 431.69 433.89C432.66 433.68 433.66 433.43 434.63 433.15C438.56 431.95 442.24 430.06 445.5 427.55C452.22 422.45 456.84 415.08 458.51 406.81C458.54 406.6 458.7 405.57 458.99 403.72L459.33 400.25L460.01 393.32L461.36 379.54L464.02 352.76L469.07 305.31L472.91 271.76C473.83 264.13 474.34 259.9 474.44 259.05C474.6 257.83 475.71 256.98 476.93 257.14C478.09 257.29 478.93 258.31 478.86 259.47C478.8 260.32 478.49 264.58 477.94 272.24L475.3 305.9L471.24 353.44L468.75 380.23L467.45 394.01L466.8 400.95C466.6 403.03 466.49 404.19 466.47 404.42C466.31 405.74 466.09 406.96 465.9 408.24C462.99 423.53 451.71 435.88 436.73 440.14C435.55 440.47 434.34 440.71 433.15 441C431.96 441.29 430.65 441.37 429.4 441.54C428.16 441.71 427.15 441.66 426.01 441.73C425.96 441.73 425.68 441.74 425.19 441.76L424.2 441.76L422.56 441.76L397.4 441.54C383.87 441.28 376.35 441.13 374.85 441.1C367.87 440.95 361.47 440.89 355.79 440.69C354.82 440.66 349.92 440.51 341.1 440.24C333.42 439.96 329.15 439.8 328.3 439.77C327.43 439.78 326.72 439.09 326.71 438.22C326.7 437.36 327.4 436.64 328.26 436.63C329.97 436.57 334.24 436.42 341.07 436.17Z" id="e2mXV6xFV"></path><path d="M383.54 440.94L383.54 543.39" id="burXhAix4"></path><path d="M90.26 349.8C90.26 349.8 90.26 349.8 90.26 349.8C90.26 346.89 90.26 345.28 90.26 344.95C90.26 344.95 90.26 344.95 90.26 344.95C277.17 344.95 381.02 344.95 401.79 344.95C401.79 344.95 401.79 344.95 401.79 344.95C401.79 347.86 401.79 349.48 401.79 349.8C401.79 349.8 401.79 349.8 401.79 349.8C214.87 349.8 111.02 349.8 90.26 349.8Z" id="e2NicAbY3H"></path><path d="M368.35 574.58L352.25 579.45L347.22 564.82L365.04 562.72L365.04 562.72L368.35 574.58Z" id="ac7CP5cjR"></path><path d="M267.86 563.64L282.11 563.64L283.7 554.12L267.86 554.12L267.86 554.12L267.86 563.64Z" id="d1e95Eeemo"></path><path d="M355.8 331.95C355.51 332.66 355.35 333.05 355.32 333.13C354.07 336.2 351.08 338.2 347.76 338.19C341.63 338.14 292.59 337.79 286.46 337.75C283.99 337.73 281.99 335.7 282.02 333.22C282.04 331.01 283.66 329.14 285.85 328.82C289.89 328.23 310.11 325.27 346.5 319.95L338.46 326.19C347.16 292.91 351.99 274.42 352.95 270.72C354.75 263.84 361.78 259.72 368.65 261.52C375.53 263.32 379.65 270.35 377.85 277.22C377.71 277.76 377.53 278.3 377.33 278.82C374.46 285.9 367.28 303.61 355.8 331.95Z" id="h21SsiLzbN"></path><path d="M293.12 327.76C280.56 327.5 273.59 327.35 272.19 327.32C266.73 327.63 262.54 332.29 262.82 337.76C264.86 337.76 275.04 337.76 293.38 337.76L293.12 327.76Z" id="a34lOH8nD5"></path><path d="M343.44 285.28L376.95 293.47C380.25 275.55 382.08 265.59 382.45 263.6C383.83 255.73 378.58 248.23 370.71 246.84C370.51 246.81 370.32 246.78 370.12 246.75C370.12 246.75 370.12 246.75 370.12 246.75C363.25 245.72 356.6 249.63 354.15 256.13C352.72 260.02 349.15 269.74 343.44 285.28Z" id="g1X8zClttt"></path><path d="M378.09 343.37C316.13 374.81 281.71 392.28 274.82 395.77C265.24 400.64 259.45 410.72 260.08 421.44C260.6 430.29 263.19 474.52 267.86 554.12L283.7 554.12L305.08 412.17L385.48 355.72L378.09 343.37Z" id="bOFCH1I9P"></path><path d="M359.86 162.16C359.86 162.16 388.56 152.41 403.64 179.58C404.49 181.17 405.49 182.67 406.64 184.06C409.7 187.67 416.07 194.34 423.12 196.5C451.05 205.07 468.72 257.87 413.13 262.57C343.57 268.45 323.82 254.73 333.77 227C340.87 207.22 334.53 193.18 334.53 193.18C339.6 186.98 354.8 168.37 359.86 162.16Z" id="bF5wfJOq7"></path><path d="M382.77 233.04C373.86 237 368.91 239.2 367.92 239.64C359.08 243.56 353.42 252.38 353.52 262.05C353.75 281.55 358.18 329.95 374.65 348.47C379.67 348.47 419.83 348.47 424.85 348.47C432.63 314.18 428.15 261.47 428.15 261.47C428.65 248.54 419.15 237.4 406.31 235.86C403.17 235.48 395.32 234.54 382.77 233.04Z" id="d2d8FZ0Ll2"></path><path d="M384.15 249.02C378.92 249.63 374.18 245.92 373.51 240.69C373.24 238.57 371.88 227.93 369.43 208.78L388.52 206.57C390.96 225.58 392.31 236.14 392.58 238.25C393.25 243.52 389.53 248.34 384.26 249.01C384.23 249.01 384.19 249.02 384.15 249.02C384.15 249.02 384.15 249.02 384.15 249.02Z" id="bfsyLPfBN"></path><path d="M384.8 178.74C386.97 195.41 388.18 204.67 388.42 206.53C390.08 219.26 381.11 230.92 368.38 232.58C368.38 232.58 368.38 232.58 368.38 232.58C368.31 232.59 367.69 232.67 367.61 232.68C354.89 234.34 343.23 225.38 341.57 212.65C341.57 212.65 341.57 212.65 341.57 212.65C341.32 210.8 340.11 201.53 337.94 184.86L384.8 178.74Z" id="d1vqhrP1dD"></path><path d="M389.94 195.87C387.54 200.84 386.21 203.61 385.94 204.16C385.94 204.16 380.62 208.77 379.11 197.18C377.83 187.37 370.71 189.07 370.71 189.07C370.71 189.07 346.29 207.54 331.95 194.87C320.63 184.86 338.92 166.56 359.85 162.17C361.68 162.97 370.84 166.97 387.31 174.17L389.94 195.87Z" id="j3Wwx5JHcF"></path><path d="M389.95 195.87C385.7 196.38 382.67 200.24 383.18 204.49C383.7 208.74 387.56 211.77 391.81 211.25C396.06 210.74 399.08 206.88 398.57 202.63C398.06 198.38 394.19 195.35 389.95 195.87Z" id="a1ZHs6x1yG"></path><path d="M390.71 205.63C389.94 205.72 389.4 206.42 389.49 207.18C389.58 207.95 390.28 208.49 391.04 208.4C391.81 208.31 392.35 207.61 392.26 206.85C392.17 206.08 391.47 205.54 390.71 205.63Z" id="b7nL2Kmt7"></path><path d="M363.05 216.35C363.05 216.35 363.68 222.07 356.47 223.09C353.62 223.85 350.7 222.16 349.94 219.31C349.92 219.25 349.91 219.2 349.9 219.15C352.53 218.59 361.73 216.63 363.05 216.35Z" id="c7hqM7mjx"></path><path d="M374.65 348.47C326.46 377.59 299.69 393.77 294.33 397C284.87 402.73 281.11 414.59 285.57 424.71C289.68 434.05 310.23 480.76 347.22 564.83L365.04 562.73C345.16 481.61 334.12 436.54 331.91 427.53C359.71 426.35 411.35 422.15 424.84 407.11C447.69 381.66 424.85 348.47 424.85 348.47C418.16 348.47 401.42 348.47 374.65 348.47Z" id="c1GKJ0uNRn"></path><path d="M282.28 337.53L189.19 337.53C173.29 294.02 164.45 269.85 162.69 265.01C162.05 263.29 162.94 261.38 164.67 260.75C165.03 260.61 165.42 260.55 165.81 260.55C171.66 260.55 200.94 260.55 253.63 260.55L282.28 337.53Z" id="j1mwxxtKHd"></path><path d="M253.08 260.56C255.73 260.56 257.2 260.56 257.5 260.56C259.87 260.56 262 262.04 262.81 264.28C264.6 269.12 273.52 293.32 289.59 336.88L281.47 336.88L253.08 260.56Z" id="burmKPY2J"></path><path d="M281.47 336.87L281.47 344.23C230.28 344.23 201.85 344.23 196.16 344.23C192.45 344.23 189.44 341.22 189.44 337.51C189.44 337.46 189.44 337.25 189.44 336.87L281.47 336.87Z" id="b17QQiI7JA"></path><path d="M339.73 344.96C341.79 344.96 343.45 343.3 343.45 341.25C343.45 341.25 343.45 341.25 343.45 341.25C343.45 339.19 341.79 337.53 339.73 337.53C335.9 337.53 316.75 337.53 282.28 337.53L282.28 344.96C316.75 344.96 335.9 344.96 339.73 344.96Z" id="auHNcN74M"></path><path d="M230.16 298.82C231.92 304.14 229.79 309.62 225.41 311.07C221.03 312.52 216.06 309.39 214.3 304.07C212.54 298.75 214.66 293.27 219.04 291.82C223.42 290.37 228.4 293.5 230.16 298.82Z" id="l38qlpqM5w"></path><path d="M395.04 331.52C394.76 332.24 394.6 332.64 394.57 332.72C393.32 335.84 390.29 337.88 386.93 337.87C380.79 337.83 331.75 337.5 325.62 337.46C323.12 337.46 321.09 335.43 321.1 332.93C321.1 330.68 322.76 328.77 324.98 328.45C329.03 327.85 349.24 324.86 385.63 319.47L377.51 325.8C386.18 291.92 391 273.1 391.96 269.34C393.68 262.37 400.71 258.11 407.68 259.82C414.64 261.54 418.9 268.57 417.19 275.54C417.17 275.62 417.15 275.7 417.13 275.78C416.99 276.31 416.82 276.84 416.62 277.36C413.74 284.58 406.55 302.64 395.04 331.52Z" id="e8YPeNMMA8"></path><path d="M331.03 326.74C318.58 326.48 311.66 326.33 310.28 326.31C304.82 326.67 300.67 331.38 300.99 336.84C303.01 336.84 313.12 336.84 331.3 336.84L331.03 326.74Z" id="jcbQpoHj"></path><path d="M382.59 284.06L416.11 292.39C419.41 274.14 421.24 264 421.61 261.97C423.05 253.98 417.74 246.33 409.75 244.89C409.59 244.86 409.43 244.83 409.28 244.81C409.28 244.81 409.28 244.81 409.28 244.81C402.36 243.79 395.68 247.79 393.31 254.37C391.88 258.33 388.31 268.22 382.59 284.06Z" id="b1mYrokaim"></path><path d="M333.98 575.8C323.44 578.38 317.58 579.81 316.41 580.09C314.6 580.53 313.14 581.86 312.52 583.62C312.43 583.87 311.72 585.91 311.63 586.16C311.28 587.16 311.8 588.25 312.8 588.61C313.02 588.68 313.25 588.72 313.48 588.71C319.13 588.58 364.38 587.48 370.04 587.34C371.81 587.3 373.21 585.84 373.17 584.08C373.17 584.01 373.17 583.95 373.16 583.88C372.86 582.82 371.38 577.48 368.7 567.87C363.57 569.1 360.72 569.78 360.15 569.92C357.3 570.86 354.17 570.54 351.57 569.03C351.27 568.85 348.84 567.43 348.53 567.26C346.36 565.98 343.6 566.32 341.8 568.08C340.76 569.11 338.15 571.69 333.98 575.8Z" id="eatqyKRFs"></path><path d="M252.8 564.69C242.26 567.26 236.4 568.69 235.23 568.98C233.42 569.42 231.95 570.75 231.34 572.51C231.25 572.76 230.53 574.79 230.45 575.05C230.09 576.05 230.62 577.14 231.62 577.49C231.84 577.57 232.07 577.61 232.3 577.6C237.41 577.49 278.36 576.63 283.48 576.52C285.24 576.48 286.65 575.02 286.61 573.26C286.61 573.19 286.6 573.13 286.6 573.07C286.51 571.97 286.07 566.52 285.27 556.7C281.48 557.95 279.38 558.65 278.96 558.79C276.1 559.74 272.98 559.41 270.38 557.9C270.08 557.73 267.64 556.31 267.34 556.13C265.17 554.86 262.41 555.21 260.62 556.97C259.58 558 256.97 560.57 252.8 564.69Z" id="b4bPW17Qrh"></path><path d="M487.47 225.02C481.59 225.02 478.64 222.07 478.64 216.19C478.64 191.74 478.64 178.15 478.64 175.43C478.64 169.55 481.59 166.61 487.47 166.61C573.69 166.61 621.6 166.61 631.18 166.61C637.06 166.61 640 169.55 640 175.43C640 199.89 640 213.47 640 216.19C640 222.07 637.06 225.02 631.18 225.02C544.95 225.02 497.05 225.02 487.47 225.02Z" id="d2wRRrUlCu"></path><path d="M589.91 212.57C588.37 212.57 587.13 211.33 587.13 209.79C587.13 209.79 587.13 209.79 587.13 209.79C587.13 206.99 587.13 184.63 587.13 181.84C587.13 180.3 588.38 179.05 589.91 179.05C592.89 179.05 616.68 179.05 619.65 179.05C621.19 179.05 622.43 180.3 622.43 181.83C622.43 181.83 622.43 181.83 622.43 181.83C622.43 184.63 622.43 206.99 622.43 209.79C622.43 211.32 621.19 212.57 619.65 212.57C613.7 212.57 592.88 212.57 589.91 212.57Z" id="irQRIRT0I"></path><path d="M575.38 186.07C576.71 186.07 577.78 184.99 577.78 183.67C577.78 183.67 577.78 183.67 577.78 183.67C577.78 183.67 577.78 183.67 577.78 183.67C577.78 182.34 576.71 181.27 575.38 181.27C575.38 181.27 575.38 181.27 575.38 181.27C567.71 181.27 506.29 181.27 498.61 181.27C497.28 181.27 496.21 182.34 496.21 183.67C496.21 183.67 496.21 183.67 496.21 183.67C496.21 183.67 496.21 183.67 496.21 183.67C496.21 184.99 497.28 186.07 498.61 186.07C498.61 186.07 498.61 186.07 498.61 186.07C513.96 186.07 567.71 186.07 575.38 186.07Z" id="b6wJcUKgja"></path><path d="M548.58 198.22C546.98 198.22 546.18 197.42 546.18 195.81C546.18 195.81 546.18 195.81 546.18 195.81C546.18 194.21 546.98 193.41 548.58 193.41C564.66 193.41 573.6 193.41 575.38 193.41C576.98 193.41 577.78 194.21 577.78 195.81C577.78 195.81 577.78 195.81 577.78 195.81C577.78 197.42 576.98 198.22 575.38 198.22C559.3 198.22 550.37 198.22 548.58 198.22Z" id="b9LuHw7gTl"></path><path d="M498.61 198.22C497.01 198.22 496.21 197.42 496.21 195.81C496.21 195.81 496.21 195.81 496.21 195.81C496.21 194.21 497.01 193.41 498.61 193.41C517.83 193.41 528.51 193.41 530.64 193.41C532.24 193.41 533.05 194.21 533.05 195.81C533.05 195.81 533.05 195.81 533.05 195.81C533.05 197.42 532.24 198.22 530.64 198.22C511.42 198.22 500.74 198.22 498.61 198.22Z" id="g4ILMHecI"></path><path d="M575.38 210.36C576.71 210.36 577.78 209.29 577.78 207.96C577.78 207.96 577.78 207.96 577.78 207.96C577.78 207.96 577.78 207.96 577.78 207.96C577.78 206.63 576.71 205.56 575.38 205.56C575.38 205.56 575.38 205.56 575.38 205.56C569.63 205.56 523.59 205.56 517.83 205.56C516.5 205.56 515.43 206.63 515.43 207.96C515.43 207.96 515.43 207.96 515.43 207.96C515.43 207.96 515.43 207.96 515.43 207.96C515.43 209.29 516.5 210.36 517.83 210.36C517.83 210.36 517.83 210.36 517.83 210.36C529.34 210.36 569.63 210.36 575.38 210.36Z" id="aghDwGuMt"></path><path d="M161.19 297.32C161.19 297.33 136.34 299.78 142.42 321.63C146.17 316.77 166.11 321.71 161.19 297.32Z" id="c2NpRR9wPe"></path><path d="M120.45 295.73C120.45 295.72 145.61 298.21 139.45 320.32C135.65 315.4 115.47 320.4 120.45 295.73Z" id="a1o3lfzFX"></path><path d="M143.7 287.29C143.68 287.29 160.23 307.76 140.55 320.4C141.18 313.78 123.09 302.81 143.7 287.29Z" id="b3AsqJnbrL"></path><path d="M121.39 318.34L127.49 344.95L153.12 344.95L159.71 318.34L159.71 318.34L121.39 318.34Z" id="c58kmcX2e"></path><path d="M235.86 349.8L235.86 537.45" id="d1yPNMxlP"></path></defs><g><g><g><use xlink:href="#a3ty79SHd" opacity="1" fill="#f0f0f0" fill-opacity="1"></use><g><use xlink:href="#a3ty79SHd" opacity="1" fill-opacity="0" stroke="#000000" stroke-width="1" stroke-opacity="0"></use></g></g><g><use xlink:href="#a8dVWK0Le" opacity="1" fill="#f0f0f0" fill-opacity="1"></use><g><use xlink:href="#a8dVWK0Le" opacity="1" fill-opacity="0" stroke="#000000" stroke-width="1" stroke-opacity="0"></use></g></g><g><use xlink:href="#anHcrzJLY" opacity="1" fill="#f0f0f0" fill-opacity="1"></use><g><use xlink:href="#anHcrzJLY" opacity="1" fill-opacity="0" stroke="#000000" stroke-width="1" stroke-opacity="0"></use></g></g><g><use xlink:href="#dIoc6qWSb" opacity="1" fill="url(#gradientf1V6MmRg6a)"></use><g><use xlink:href="#dIoc6qWSb" opacity="1" fill-opacity="0" stroke="#000000" stroke-width="1" stroke-opacity="0"></use></g></g><g><use xlink:href="#b4wgxLnaWq" opacity="1" fill="url(#gradiente3l0bpzM0A)"></use><use xlink:href="#b4wgxLnaWq" opacity="1" fill="#fadd4b" fill-opacity="1"></use><g><use xlink:href="#b4wgxLnaWq" opacity="1" fill-opacity="0" stroke="#000000" stroke-width="1" stroke-opacity="0"></use></g></g><g><use xlink:href="#atQLJdTi" opacity="1" fill="#ffbf1a" fill-opacity="1"></use><g><use xlink:href="#atQLJdTi" opacity="1" fill-opacity="0" stroke="#000000" stroke-width="1" stroke-opacity="0"></use></g></g><g><use xlink:href="#aENSnF1SL" opacity="1" fill="#d1e8e6" fill-opacity="1"></use><g><use xlink:href="#aENSnF1SL" opacity="1" fill-opacity="0" stroke="#000000" stroke-width="1" stroke-opacity="0"></use></g></g><g><use xlink:href="#e1dB5Ziwpa" opacity="1" fill="#fadd4b" fill-opacity="1"></use><g><use xlink:href="#e1dB5Ziwpa" opacity="1" fill-opacity="0" stroke="#000000" stroke-width="1" stroke-opacity="0"></use></g></g><g><use xlink:href="#c5VP8pcwek" opacity="1" fill="#ffffff" fill-opacity="1"></use><g><use xlink:href="#c5VP8pcwek" opacity="1" fill-opacity="0" stroke="#000000" stroke-width="1" stroke-opacity="0"></use></g></g><g><use xlink:href="#agDfRKRbL" opacity="1" fill="#ffffff" fill-opacity="1"></use><g><use xlink:href="#agDfRKRbL" opacity="1" fill-opacity="0" stroke="#000000" stroke-width="1" stroke-opacity="0"></use></g></g><g><use xlink:href="#a1QckUmfqf" opacity="1" fill="#ffffff" fill-opacity="1"></use><g><use xlink:href="#a1QckUmfqf" opacity="1" fill-opacity="0" stroke="#000000" stroke-width="1" stroke-opacity="0"></use></g></g><g><use xlink:href="#f78vjxjJ61" opacity="1" fill="#ffffff" fill-opacity="1"></use><g><use xlink:href="#f78vjxjJ61" opacity="1" fill-opacity="0" stroke="#000000" stroke-width="1" stroke-opacity="0"></use></g></g><g><use xlink:href="#b1fKXFp8Ik" opacity="1" fill="#ffffff" fill-opacity="1"></use><g><use xlink:href="#b1fKXFp8Ik" opacity="1" fill-opacity="0" stroke="#000000" stroke-width="1" stroke-opacity="0"></use></g></g><g><use xlink:href="#e8BDSEnrb" opacity="1" fill="#ffffff" fill-opacity="1"></use><g><use xlink:href="#e8BDSEnrb" opacity="1" fill-opacity="0" stroke="#000000" stroke-width="1" stroke-opacity="0"></use></g></g><g><use xlink:href="#a3B5zwvroX" opacity="1" fill="#ffffff" fill-opacity="1"></use><g><use xlink:href="#a3B5zwvroX" opacity="1" fill-opacity="0" stroke="#000000" stroke-width="1" stroke-opacity="0"></use></g></g><g><use xlink:href="#a3TKpaflqK" opacity="1" fill="#d1e8e6" fill-opacity="1"></use><g><use xlink:href="#a3TKpaflqK" opacity="1" fill-opacity="0" stroke="#000000" stroke-width="1" stroke-opacity="0"></use></g></g><g><use xlink:href="#bm6vucT9" opacity="1" fill="#ffffff" fill-opacity="1"></use><g><use xlink:href="#bm6vucT9" opacity="1" fill-opacity="0" stroke="#000000" stroke-width="1" stroke-opacity="0"></use></g></g><g><use xlink:href="#aRehJXvTi" opacity="1" fill="#ffffff" fill-opacity="1"></use><g><use xlink:href="#aRehJXvTi" opacity="1" fill-opacity="0" stroke="#000000" stroke-width="1" stroke-opacity="0"></use></g></g><g><use xlink:href="#frdywQYWH" opacity="1" fill="#ffffff" fill-opacity="1"></use><g><use xlink:href="#frdywQYWH" opacity="1" fill-opacity="0" stroke="#000000" stroke-width="1" stroke-opacity="0"></use></g></g><g><use xlink:href="#jjQ7Ajnlx" opacity="1" fill="#ffffff" fill-opacity="1"></use><g><use xlink:href="#jjQ7Ajnlx" opacity="1" fill-opacity="0" stroke="#000000" stroke-width="1" stroke-opacity="0"></use></g></g><g><use xlink:href="#a1EiWoC2dn" opacity="1" fill="#c5e0e2" fill-opacity="1"></use><g><use xlink:href="#a1EiWoC2dn" opacity="1" fill-opacity="0" stroke="#000000" stroke-width="1" stroke-opacity="0"></use></g></g><g><use xlink:href="#b74b4prqx" opacity="1" fill="#ffffff" fill-opacity="1"></use><g><use xlink:href="#b74b4prqx" opacity="1" fill-opacity="0" stroke="#000000" stroke-width="1" stroke-opacity="0"></use></g></g><g><use xlink:href="#a5d4O6YPEr" opacity="1" fill="#ffffff" fill-opacity="1"></use><g><use xlink:href="#a5d4O6YPEr" opacity="1" fill-opacity="0" stroke="#000000" stroke-width="1" stroke-opacity="0"></use></g></g><g><use xlink:href="#d8hdmtOw" opacity="1" fill="#ffffff" fill-opacity="1"></use><g><use xlink:href="#d8hdmtOw" opacity="1" fill-opacity="0" stroke="#000000" stroke-width="1" stroke-opacity="0"></use></g></g><g><use xlink:href="#b1KV4dVEeT" opacity="1" fill="#dfe2ef" fill-opacity="1"></use><g><use xlink:href="#b1KV4dVEeT" opacity="1" fill-opacity="0" stroke="#000000" stroke-width="1" stroke-opacity="0"></use></g></g><g><use xlink:href="#e2mXV6xFV" opacity="1" fill="#3d415b" fill-opacity="1"></use><g><use xlink:href="#e2mXV6xFV" opacity="1" fill-opacity="0" stroke="#000000" stroke-width="1" stroke-opacity="0"></use></g></g><g><use xlink:href="#burXhAix4" opacity="1" fill="#000000" fill-opacity="0"></use><g><use xlink:href="#burXhAix4" opacity="1" fill-opacity="0" stroke="#3d415b" stroke-width="2.5" stroke-opacity="1"></use></g></g><g><use xlink:href="#e2NicAbY3H" opacity="1" fill="#3d415b" fill-opacity="1"></use><g><use xlink:href="#e2NicAbY3H" opacity="1" fill-opacity="0" stroke="#000000" stroke-width="1" stroke-opacity="0"></use></g></g><g><use xlink:href="#ac7CP5cjR" opacity="1" fill="#ffe0bc" fill-opacity="1"></use><g><use xlink:href="#ac7CP5cjR" opacity="1" fill-opacity="0" stroke="#000000" stroke-width="1" stroke-opacity="0"></use></g></g><g><use xlink:href="#d1e95Eeemo" opacity="1" fill="#ffe0bc" fill-opacity="1"></use><g><use xlink:href="#d1e95Eeemo" opacity="1" fill-opacity="0" stroke="#000000" stroke-width="1" stroke-opacity="0"></use></g></g><g><use xlink:href="#h21SsiLzbN" opacity="1" fill="#efc9a3" fill-opacity="1"></use><g><use xlink:href="#h21SsiLzbN" opacity="1" fill-opacity="0" stroke="#000000" stroke-width="1" stroke-opacity="0"></use></g></g><g><use xlink:href="#a34lOH8nD5" opacity="1" fill="#efc9a3" fill-opacity="1"></use><g><use xlink:href="#a34lOH8nD5" opacity="1" fill-opacity="0" stroke="#000000" stroke-width="1" stroke-opacity="0"></use></g></g><g><use xlink:href="#g1X8zClttt" opacity="1" fill="#129093" fill-opacity="1"></use><g><use xlink:href="#g1X8zClttt" opacity="1" fill-opacity="0" stroke="#000000" stroke-width="1" stroke-opacity="0"></use></g></g><g><use xlink:href="#bOFCH1I9P" opacity="1" fill="#303348" fill-opacity="1"></use><g><use xlink:href="#bOFCH1I9P" opacity="1" fill-opacity="0" stroke="#000000" stroke-width="1" stroke-opacity="0"></use></g></g><g><use xlink:href="#bF5wfJOq7" opacity="1" fill="#282c3c" fill-opacity="1"></use><g><use xlink:href="#bF5wfJOq7" opacity="1" fill-opacity="0" stroke="#000000" stroke-width="1" stroke-opacity="0"></use></g></g><g><use xlink:href="#d2d8FZ0Ll2" opacity="1" fill="#007c86" fill-opacity="1"></use><g><use xlink:href="#d2d8FZ0Ll2" opacity="1" fill-opacity="0" stroke="#000000" stroke-width="1" stroke-opacity="0"></use></g></g><g><use xlink:href="#bfsyLPfBN" opacity="1" fill="#efc9a3" fill-opacity="1"></use><g><use xlink:href="#bfsyLPfBN" opacity="1" fill-opacity="0" stroke="#000000" stroke-width="1" stroke-opacity="0"></use></g></g><g><use xlink:href="#d1vqhrP1dD" opacity="1" fill="#ffe0bc" fill-opacity="1"></use><g><use xlink:href="#d1vqhrP1dD" opacity="1" fill-opacity="0" stroke="#000000" stroke-width="1" stroke-opacity="0"></use></g></g><g><use xlink:href="#j3Wwx5JHcF" opacity="1" fill="#282c3c" fill-opacity="1"></use><g><use xlink:href="#j3Wwx5JHcF" opacity="1" fill-opacity="0" stroke="#000000" stroke-width="1" stroke-opacity="0"></use></g></g><g><use xlink:href="#a1ZHs6x1yG" opacity="1" fill="#ffe0bc" fill-opacity="1"></use><g><use xlink:href="#a1ZHs6x1yG" opacity="1" fill-opacity="0" stroke="#000000" stroke-width="1" stroke-opacity="0"></use></g></g><g><use xlink:href="#b7nL2Kmt7" opacity="1" fill="#ffffff" fill-opacity="1"></use><g><use xlink:href="#b7nL2Kmt7" opacity="1" fill-opacity="0" stroke="#000000" stroke-width="1" stroke-opacity="0"></use></g></g><g><use xlink:href="#c7hqM7mjx" opacity="1" fill="#ffffff" fill-opacity="1"></use><g><use xlink:href="#c7hqM7mjx" opacity="1" fill-opacity="0" stroke="#000000" stroke-width="1" stroke-opacity="0"></use></g></g><g><use xlink:href="#c1GKJ0uNRn" opacity="1" fill="#3d415b" fill-opacity="1"></use><g><use xlink:href="#c1GKJ0uNRn" opacity="1" fill-opacity="0" stroke="#000000" stroke-width="1" stroke-opacity="0"></use></g></g><g><use xlink:href="#j1mwxxtKHd" opacity="1" fill="#c2dff1" fill-opacity="1"></use><g><use xlink:href="#j1mwxxtKHd" opacity="1" fill-opacity="0" stroke="#000000" stroke-width="1" stroke-opacity="0"></use></g></g><g><use xlink:href="#burmKPY2J" opacity="1" fill="#a5c3d3" fill-opacity="1"></use><g><use xlink:href="#burmKPY2J" opacity="1" fill-opacity="0" stroke="#000000" stroke-width="1" stroke-opacity="0"></use></g></g><g><use xlink:href="#b17QQiI7JA" opacity="1" fill="#a5c3d3" fill-opacity="1"></use><g><use xlink:href="#b17QQiI7JA" opacity="1" fill-opacity="0" stroke="#000000" stroke-width="1" stroke-opacity="0"></use></g></g><g><use xlink:href="#auHNcN74M" opacity="1" fill="#a5c3d3" fill-opacity="1"></use><g><use xlink:href="#auHNcN74M" opacity="1" fill-opacity="0" stroke="#000000" stroke-width="1" stroke-opacity="0"></use></g></g><g><use xlink:href="#l38qlpqM5w" opacity="1" fill="#ecf2f5" fill-opacity="1"></use><g><use xlink:href="#l38qlpqM5w" opacity="1" fill-opacity="0" stroke="#000000" stroke-width="1" stroke-opacity="0"></use></g></g><g><use xlink:href="#e8YPeNMMA8" opacity="1" fill="#ffe0bc" fill-opacity="1"></use><g><use xlink:href="#e8YPeNMMA8" opacity="1" fill-opacity="0" stroke="#000000" stroke-width="1" stroke-opacity="0"></use></g></g><g><use xlink:href="#jcbQpoHj" opacity="1" fill="#fcd8b6" fill-opacity="1"></use><g><use xlink:href="#jcbQpoHj" opacity="1" fill-opacity="0" stroke="#000000" stroke-width="1" stroke-opacity="0"></use></g></g><g><use xlink:href="#b1mYrokaim" opacity="1" fill="#129093" fill-opacity="1"></use><g><use xlink:href="#b1mYrokaim" opacity="1" fill-opacity="0" stroke="#000000" stroke-width="1" stroke-opacity="0"></use></g></g><g><use xlink:href="#eatqyKRFs" opacity="1" fill="#29323d" fill-opacity="1"></use><g><use xlink:href="#eatqyKRFs" opacity="1" fill-opacity="0" stroke="#000000" stroke-width="1" stroke-opacity="0"></use></g></g><g><use xlink:href="#b4bPW17Qrh" opacity="1" fill="#29323d" fill-opacity="1"></use><g><use xlink:href="#b4bPW17Qrh" opacity="1" fill-opacity="0" stroke="#000000" stroke-width="1" stroke-opacity="0"></use></g></g><g><use xlink:href="#d2wRRrUlCu" opacity="1" fill="#c5e0e2" fill-opacity="1"></use><g><use xlink:href="#d2wRRrUlCu" opacity="1" fill-opacity="0" stroke="#000000" stroke-width="1" stroke-opacity="0"></use></g></g><g><use xlink:href="#irQRIRT0I" opacity="1" fill="#ffffff" fill-opacity="1"></use><g><use xlink:href="#irQRIRT0I" opacity="1" fill-opacity="0" stroke="#000000" stroke-width="1" stroke-opacity="0"></use></g></g><g><use xlink:href="#b6wJcUKgja" opacity="1" fill="#ffffff" fill-opacity="1"></use><g><use xlink:href="#b6wJcUKgja" opacity="1" fill-opacity="0" stroke="#000000" stroke-width="1" stroke-opacity="0"></use></g></g><g><use xlink:href="#b9LuHw7gTl" opacity="1" fill="#ffffff" fill-opacity="1"></use><g><use xlink:href="#b9LuHw7gTl" opacity="1" fill-opacity="0" stroke="#000000" stroke-width="1" stroke-opacity="0"></use></g></g><g><use xlink:href="#g4ILMHecI" opacity="1" fill="#ffffff" fill-opacity="1"></use><g><use xlink:href="#g4ILMHecI" opacity="1" fill-opacity="0" stroke="#000000" stroke-width="1" stroke-opacity="0"></use></g></g><g><use xlink:href="#aghDwGuMt" opacity="1" fill="#ffffff" fill-opacity="1"></use><g><use xlink:href="#aghDwGuMt" opacity="1" fill-opacity="0" stroke="#000000" stroke-width="1" stroke-opacity="0"></use></g></g><g><use xlink:href="#c2NpRR9wPe" opacity="1" fill="#33d18d" fill-opacity="1"></use><g><use xlink:href="#c2NpRR9wPe" opacity="1" fill-opacity="0" stroke="#000000" stroke-width="1" stroke-opacity="0"></use></g></g><g><use xlink:href="#a1o3lfzFX" opacity="1" fill="#33d18d" fill-opacity="1"></use><g><use xlink:href="#a1o3lfzFX" opacity="1" fill-opacity="0" stroke="#000000" stroke-width="1" stroke-opacity="0"></use></g></g><g><use xlink:href="#b3AsqJnbrL" opacity="1" fill="#33d18d" fill-opacity="1"></use><g><use xlink:href="#b3AsqJnbrL" opacity="1" fill-opacity="0" stroke="#000000" stroke-width="1" stroke-opacity="0"></use></g></g><g><use xlink:href="#c58kmcX2e" opacity="1" fill="#8b4200" fill-opacity="1"></use><g><use xlink:href="#c58kmcX2e" opacity="1" fill-opacity="0" stroke="#000000" stroke-width="1" stroke-opacity="0"></use></g></g><g><use xlink:href="#d1yPNMxlP" opacity="1" fill="#000000" fill-opacity="0"></use><g><use xlink:href="#d1yPNMxlP" opacity="1" fill-opacity="0" stroke="#3d415b" stroke-width="2" stroke-opacity="1"></use></g></g></g></g></svg>