<?xml version="1.0" encoding="UTF-8" standalone="no"?>
<!DOCTYPE svg PUBLIC "-//W3C//DTD SVG 1.1//EN" "http://www.w3.org/Graphics/SVG/1.1/DTD/svg11.dtd">
<svg version="1.1" xmlns="http://www.w3.org/2000/svg" xmlns:xlink="http://www.w3.org/1999/xlink" preserveAspectRatio="xMidYMid meet" viewBox="0 0 640 640" width="640" height="640"><defs><path d="M183.96 55.48C183.96 24.84 159.13 0 128.49 0C97.86 0 73.02 24.83 73.01 55.47C73.04 86.09 97.85 110.91 128.48 110.95C159.12 110.95 183.96 86.12 183.96 55.48ZM164.57 55.48C164.57 75.4 148.42 91.56 128.49 91.56C108.56 91.57 92.41 75.42 92.4 55.49C92.4 55.48 92.4 55.47 92.4 55.47C92.43 35.55 108.57 19.42 128.48 19.4C148.41 19.4 164.56 35.55 164.57 55.48Z" id="a2aymrBLrI"></path><path d="M118.79 188.85C118.79 190.2 118.79 200.98 118.79 202.33C118.69 207.68 122.95 212.1 128.31 212.2C133.66 212.3 138.08 208.04 138.18 202.68C138.18 202.57 138.18 202.45 138.18 202.33C138.18 200.98 138.18 190.2 138.18 188.85C138.18 183.5 133.84 179.16 128.49 179.15C123.13 179.16 118.79 183.5 118.79 188.85Z" id="cuHjlARwM"></path><path d="M118.79 242.81C118.79 242.81 118.79 242.81 118.79 242.81C118.79 244.16 118.79 254.94 118.79 256.29C118.89 261.65 123.31 265.91 128.66 265.81C133.88 265.71 138.08 261.51 138.18 256.29C138.18 254.94 138.18 244.16 138.18 242.81C138.18 237.45 133.84 233.11 128.49 233.1C123.13 233.1 118.79 237.45 118.79 242.81Z" id="a6FhqM5xLt"></path><path d="M118.79 296.77C118.79 296.77 118.79 296.77 118.79 296.77C118.79 297.42 118.79 302.58 118.79 303.23C118.89 308.58 123.31 312.84 128.66 312.75C133.88 312.65 138.08 308.45 138.18 303.23C138.18 302.58 138.18 297.42 138.18 296.77C138.18 291.41 133.84 287.06 128.49 287.06C123.13 287.06 118.79 291.41 118.79 296.77Z" id="b1dV2HQgwu"></path><path d="M327.27 46.57C313.09 33.04 290.78 33.04 276.6 46.57C269.34 53.84 211.24 111.95 203.98 119.22C195.67 127.57 184.37 132.25 172.59 132.22C161.53 132.22 73.03 132.22 61.97 132.22C27.76 132.26 0.04 159.98 0 194.19C0 210.36 0 339.67 0 355.83C0.03 375.61 16.06 391.64 35.84 391.67C41.6 391.64 47.27 390.21 52.36 387.5C52.36 408.49 52.36 576.42 52.36 597.42C52.61 621.17 72.06 640.22 95.81 639.97C108.48 639.84 120.45 634.12 128.52 624.35C143.64 642.66 170.75 645.25 189.07 630.13C198.84 622.06 204.56 610.09 204.69 597.42C204.69 561.19 204.69 271.34 204.69 235.1C204.67 225.75 208.38 216.77 215 210.16C226.23 198.87 316.04 108.55 327.27 97.26C334.01 90.56 337.8 81.44 337.77 71.93C337.8 62.41 334.02 53.28 327.27 46.57ZM161.48 620.69C148.7 620.54 138.37 610.21 138.22 597.42C138.22 578.65 138.22 428.47 138.22 409.7C138.32 404.35 134.05 399.92 128.7 399.83C123.34 399.73 118.92 403.99 118.83 409.35C118.82 409.47 118.82 409.58 118.83 409.7C118.83 428.47 118.83 578.65 118.83 597.42C118.56 610.42 107.81 620.75 94.81 620.49C82.18 620.23 72 610.05 71.75 597.42C71.75 581.77 71.75 503.53 71.75 362.68L185.3 362.68L185.3 597.42C178.09 613.03 170.15 620.79 161.48 620.69ZM201.25 196.48C191 206.72 185.26 220.63 185.3 235.11C185.3 242.33 185.3 278.39 185.3 343.3L71.74 343.3C71.7 259.27 71.67 212.59 71.67 203.26C71.77 197.9 67.5 193.48 62.15 193.38C56.79 193.28 52.37 197.55 52.28 202.9C52.27 203.02 52.27 203.14 52.28 203.26C52.28 218.51 52.28 340.58 52.28 355.83C52.28 364.91 44.92 372.27 35.84 372.27C26.76 372.27 19.4 364.91 19.4 355.83C19.4 339.67 19.4 210.36 19.4 194.19C19.42 170.69 38.47 151.64 61.97 151.62C67.72 151.62 113.69 151.62 119.44 151.62C121.15 156.61 126.58 159.28 131.57 157.57C134.37 156.62 136.57 154.42 137.53 151.62C141.03 151.62 169.08 151.62 172.59 151.62C189.52 151.67 205.76 144.94 217.7 132.94C224.96 125.67 283.05 67.57 290.31 60.31C296.81 54.1 307.05 54.1 313.56 60.31C319.98 66.72 319.99 77.11 313.58 83.53C313.57 83.54 313.56 83.55 313.55 83.57C291.09 106.15 212.48 185.19 201.25 196.48Z" id="b3nCXV7WGj"></path><path d="M394.83 0C389.48 0 385.14 4.33 385.13 9.68C385.13 11.28 385.53 12.86 386.29 14.27C388.71 18.79 400.82 41.36 422.62 81.99C400.82 122.6 388.71 145.16 386.29 149.67C383.75 154.39 385.53 160.28 390.25 162.81C391.66 163.57 393.23 163.97 394.83 163.97C409.88 163.97 485.14 163.97 620.6 163.97L620.6 280.1L524.7 407.92C500.27 375.35 486.7 357.26 483.98 353.64C480.44 349.36 474.1 348.76 469.81 352.3C469.32 352.7 468.87 353.15 468.47 353.64C461.87 362.43 428.89 406.38 369.53 485.49C345.1 452.93 331.53 434.84 328.81 431.22C325.27 426.94 318.93 426.34 314.64 429.88C314.16 430.28 313.71 430.73 313.3 431.22C305.12 442.13 239.66 529.36 231.48 540.26C228.19 544.49 228.95 550.58 233.17 553.87C237.4 557.17 243.5 556.41 246.79 552.18C246.86 552.09 246.93 551.99 247 551.9C251.94 545.32 276.62 512.42 321.05 453.2L446.66 620.6C322.21 620.6 253.07 620.6 239.24 620.6C233.88 620.69 229.62 625.12 229.72 630.47C229.81 635.69 234.02 639.9 239.24 640C278.35 640 591.2 640 630.3 640C635.66 639.99 640 635.65 640 630.3C640 568.24 640 71.76 640 9.7C640 4.35 635.66 0 630.3 0C630.3 0 418.38 0 394.83 0ZM470.91 620.6L381.66 501.66L476.22 375.63L620.6 568.05L620.6 620.6L470.91 620.6ZM536.82 424.05L620.6 312.41L620.6 535.72L536.82 424.05ZM411.04 144.56C429.71 109.76 440.09 90.43 442.17 86.56C443.7 83.7 443.7 80.26 442.17 77.4C440.09 73.53 429.71 54.2 411.04 19.4L620.6 19.4L620.6 144.56L411.04 144.56Z" id="aNzSq9H8i"></path></defs><g><g><g><use xlink:href="#a2aymrBLrI" opacity="1" fill="#fadd4b" fill-opacity="1"></use><g><use xlink:href="#a2aymrBLrI" opacity="1" fill-opacity="0" stroke="#000000" stroke-width="1" stroke-opacity="0"></use></g></g><g><use xlink:href="#cuHjlARwM" opacity="1" fill="#fadd4b" fill-opacity="1"></use><g><use xlink:href="#cuHjlARwM" opacity="1" fill-opacity="0" stroke="#000000" stroke-width="1" stroke-opacity="0"></use></g></g><g><use xlink:href="#a6FhqM5xLt" opacity="1" fill="#fadd4b" fill-opacity="1"></use><g><use xlink:href="#a6FhqM5xLt" opacity="1" fill-opacity="0" stroke="#000000" stroke-width="1" stroke-opacity="0"></use></g></g><g><use xlink:href="#b1dV2HQgwu" opacity="1" fill="#fadd4b" fill-opacity="1"></use><g><use xlink:href="#b1dV2HQgwu" opacity="1" fill-opacity="0" stroke="#000000" stroke-width="1" stroke-opacity="0"></use></g></g><g><use xlink:href="#b3nCXV7WGj" opacity="1" fill="#fadd4b" fill-opacity="1"></use><g><use xlink:href="#b3nCXV7WGj" opacity="1" fill-opacity="0" stroke="#000000" stroke-width="1" stroke-opacity="0"></use></g></g><g><use xlink:href="#aNzSq9H8i" opacity="1" fill="#fadd4b" fill-opacity="1"></use><g><use xlink:href="#aNzSq9H8i" opacity="1" fill-opacity="0" stroke="#000000" stroke-width="1" stroke-opacity="0"></use></g></g></g></g></svg>