<?xml version="1.0" encoding="UTF-8" standalone="no"?>
<!DOCTYPE svg PUBLIC "-//W3C//DTD SVG 1.1//EN" "http://www.w3.org/Graphics/SVG/1.1/DTD/svg11.dtd">
<svg version="1.1" xmlns="http://www.w3.org/2000/svg" xmlns:xlink="http://www.w3.org/1999/xlink" preserveAspectRatio="xMidYMid meet" viewBox="0 0 640 640" width="640" height="640"><defs><path d="M19.4 553.34C19.4 471.41 19.4 425.89 19.4 416.78C19.4 411.43 15.05 407.09 9.7 407.09C4.34 407.09 0 411.43 0 416.78C0 438.14 0 608.95 0 630.3C0 635.65 4.34 640 9.7 640C15.05 640 19.4 635.65 19.4 630.3C19.4 626.46 19.4 607.27 19.4 572.74L78.67 572.74C78.67 607.27 78.67 626.46 78.67 630.3C78.67 635.66 83.01 640 88.36 640C93.72 640 98.06 635.66 98.06 630.3C98.06 626.46 98.06 607.27 98.06 572.74C104.29 572.74 107.75 572.74 108.44 572.74C113.79 572.74 118.13 568.39 118.13 563.04C118.13 557.69 113.79 553.34 108.44 553.34C96.57 553.34 66.88 553.34 19.4 553.34Z" id="a38b7kvfVO"></path><path d="M620.6 416.78C620.6 425.89 620.6 471.41 620.6 553.34C567.18 553.34 537.5 553.34 531.57 553.34C526.21 553.25 521.79 557.51 521.7 562.86C521.6 568.22 525.86 572.64 531.22 572.73C531.33 572.73 531.45 572.73 531.57 572.73C532.26 572.73 535.72 572.73 541.95 572.73C541.95 607.27 541.95 626.46 541.95 630.3C541.95 635.65 546.29 640 551.64 640C557 640 561.34 635.65 561.34 630.3C561.34 626.46 561.34 607.27 561.34 572.74L620.6 572.74C620.6 607.27 620.6 626.46 620.6 630.3C620.6 635.66 624.95 640 630.3 640C635.66 640 640 635.66 640 630.3C640 608.95 640 438.14 640 416.78C640 411.43 635.66 407.09 630.3 407.08C624.95 407.09 620.61 411.43 620.6 416.78Z" id="gfbUxftG2"></path><path d="M475.16 420.01C444.12 420.01 195.88 420.01 164.85 420.01C159.49 420.01 155.15 424.35 155.15 429.71C155.15 435.07 159.49 439.41 164.85 439.41C174.55 439.41 223.03 439.41 310.3 439.41C310.3 553.94 310.3 617.57 310.3 630.3C310.3 635.65 314.65 640 320 640C325.36 640 329.7 635.65 329.7 630.3C329.7 617.57 329.7 553.94 329.7 439.41C416.97 439.41 465.46 439.41 475.16 439.41C480.51 439.41 484.85 435.07 484.85 429.71C484.85 424.36 480.51 420.01 475.16 420.01Z" id="c8719CjWg"></path><path d="M83.6 280.33C110.78 280.22 132.74 258.1 132.63 230.92C132.53 203.74 110.41 181.79 83.23 181.89C56.04 181.99 34.09 204.11 34.19 231.29C34.28 253.84 49.68 273.45 71.57 278.88C75.51 279.84 79.55 280.33 83.6 280.33ZM83.63 200.75C86.18 200.75 88.72 201.06 91.2 201.66C107.35 205.78 117.1 222.22 112.98 238.37C108.85 254.51 92.42 264.26 76.27 260.14C60.12 256.02 50.37 239.58 54.5 223.43C55.97 217.66 59.11 212.46 63.54 208.48C69.03 203.49 76.2 200.73 83.63 200.75Z" id="a7rjaPrxX"></path><path d="M221.29 490.16C216.07 474.33 201.37 463.57 184.7 463.37C180.39 463.32 145.91 462.9 141.6 462.85C133.6 462.8 127.14 456.32 127.11 448.32C127.03 442.71 126.6 414.66 125.83 364.18C167.82 377.61 191.15 385.07 195.82 386.56C202.66 388.75 210 388.77 216.85 386.6C223.47 384.51 276.42 367.78 283.03 365.69C299.18 360.66 308.2 343.49 303.17 327.34C303 326.78 302.81 326.23 302.6 325.69C302.6 325.69 302.6 325.69 302.6 325.69C296.88 310.62 280.49 302.54 265.05 307.17C259.01 309.06 210.64 324.16 204.6 326.05C202.11 326.83 199.42 326.7 197.01 325.67C190.06 322.71 134.46 299.02 127.51 296.05C120.33 293 112.5 291.78 104.73 292.51C100.81 292.88 69.43 295.81 65.51 296.17C46.27 298.01 31.76 314.47 32.35 333.79C32.92 348.81 37.45 468.94 38.02 483.96C39.03 513.58 63.67 536.88 93.3 536.26C99.12 536.12 145.66 534.99 151.48 534.85C156.61 534.56 161.23 537.96 162.48 542.95C164.53 550.16 180.89 607.86 182.94 615.07C187.16 629.8 200.61 639.96 215.92 640C216.57 640 221.75 640 222.4 640C241.69 640 257.34 624.37 257.34 605.07C257.34 601.35 256.75 597.66 255.58 594.13C248.73 573.33 228.15 510.95 221.29 490.16ZM222.42 620.61C221.77 620.61 216.57 620.61 215.92 620.61C209.27 620.59 203.44 616.18 201.6 609.79C199.56 602.58 183.2 544.89 181.15 537.68C177.43 524.53 165.43 515.45 151.76 515.46C151.71 515.46 151.46 515.46 151.01 515.46C116.1 516.31 96.7 516.78 92.82 516.87C73.91 517.52 58.06 502.7 57.41 483.79C57.41 483.63 57.4 483.46 57.4 483.29C56.83 468.28 52.3 348.14 51.73 333.12C51.47 324.05 58.29 316.33 67.32 315.48C71.24 315.11 102.61 312.18 106.53 311.81C111.09 311.39 115.69 312.11 119.91 313.89C126.86 316.85 182.46 340.52 189.4 343.48C196.05 346.3 203.49 346.67 210.38 344.52C216.41 342.63 264.69 327.57 270.72 325.69C276.37 324.01 282.35 326.97 284.45 332.48C286.62 338.3 283.67 344.79 277.84 346.96C277.65 347.04 277.44 347.1 277.24 347.17C270.62 349.26 217.63 366 211 368.09C207.98 369.05 204.74 369.05 201.72 368.09C193.44 365.44 127.16 344.25 118.88 341.6C113.78 339.96 108.32 342.77 106.69 347.87C106.36 348.87 106.21 349.92 106.22 350.98C106.37 360.74 107.57 438.82 107.72 448.58C108.03 467.03 122.91 481.92 141.37 482.24C145.68 482.29 180.16 482.71 184.47 482.76C192.85 482.87 200.25 488.28 202.88 496.24C206.31 506.63 233.75 589.81 237.17 600.21C238.76 604.94 237.95 610.15 235 614.18C232.1 618.24 227.41 620.64 222.42 620.61Z" id="c1TGpV9lp3"></path><path d="M568.44 278.87C594.96 272.17 611.03 245.23 604.32 218.71C597.62 192.19 570.68 176.12 544.16 182.83C524.7 187.75 510.14 203.92 507.27 223.78C503.38 250.83 522.15 275.92 549.2 279.82C551.59 280.16 554 280.33 556.41 280.32C560.46 280.32 564.5 279.84 568.44 278.87ZM548.79 201.65C551.28 201.04 553.83 200.74 556.38 200.74C573.03 200.77 586.5 214.3 586.47 230.95C586.47 232.4 586.36 233.86 586.14 235.3C583.69 251.77 568.35 263.14 551.88 260.68C535.41 258.23 524.04 242.89 526.49 226.42C528.29 214.43 537.07 204.69 548.79 201.65Z" id="b2cyh2UeHL"></path><path d="M607.67 333.72C608.21 314.42 593.7 298.01 574.48 296.17C570.57 295.81 539.22 292.88 535.31 292.51C527.53 291.79 519.69 293 512.5 296.05C506.68 298.52 460.11 318.29 454.28 320.76C450.83 322.24 446.87 321.88 443.74 319.8C439.53 316.91 405.8 293.86 401.58 290.98C387.52 281.58 368.5 285.37 359.11 299.43C349.81 313.35 353.42 332.16 367.2 341.65C373.57 346.06 424.51 381.31 430.88 385.72C439.51 391.65 450.58 392.75 460.21 388.63C463.8 387.1 481.78 379.43 514.15 365.61C513.38 415.26 512.95 442.84 512.87 448.36C512.73 456.3 506.33 462.7 498.39 462.85C494.08 462.9 459.59 463.32 455.27 463.37C438.61 463.57 423.91 474.34 418.7 490.17C415.27 500.57 387.83 583.73 384.4 594.13C378.36 612.45 388.32 632.2 406.64 638.24C410.18 639.41 413.88 640 417.6 640C418.25 640 423.43 640 424.08 640C439.39 639.96 452.84 629.8 457.06 615.08C459.1 607.87 475.46 550.18 477.51 542.97C478.83 538.03 483.4 534.66 488.51 534.86C494.33 535 540.89 536.12 546.71 536.27C576.25 536.73 600.78 513.55 601.97 484.02C603.11 453.96 607.1 348.75 607.67 333.72ZM438.4 609.79C436.57 616.18 430.73 620.6 424.08 620.61C423.43 620.61 418.25 620.61 417.6 620.61C409.02 620.61 402.06 613.65 402.06 605.07C402.06 603.42 402.33 601.78 402.84 600.21C406.27 589.82 433.69 506.65 437.12 496.25C439.75 488.29 447.14 482.87 455.52 482.76C459.83 482.71 494.33 482.29 498.64 482.24C517.07 481.92 531.94 467.05 532.27 448.62C532.42 438.86 533.63 360.75 533.78 350.99C533.87 345.64 529.61 341.23 524.26 341.13C522.89 341.11 521.54 341.38 520.28 341.91C513.51 344.8 459.38 367.91 452.61 370.79C449.09 372.3 445.05 371.9 441.88 369.75C435.51 365.35 384.57 330.1 378.2 325.69C373.09 322.17 371.79 315.18 375.31 310.07C375.42 309.9 375.55 309.73 375.67 309.57C379.26 304.93 385.81 303.83 390.71 307.04C394.93 309.93 428.66 332.99 432.87 335.87C441.45 341.63 452.35 342.66 461.85 338.61C467.67 336.14 514.25 316.39 520.08 313.92C524.32 312.13 528.93 311.42 533.52 311.84C537.43 312.2 568.78 315.13 572.69 315.49C581.7 316.35 588.52 324.02 588.3 333.07C587.73 348.1 583.17 468.34 582.6 483.37C582.21 502.28 566.56 517.28 547.66 516.89C547.5 516.88 547.35 516.88 547.2 516.87C541.38 516.73 494.78 515.6 488.96 515.46C475.01 515.07 462.59 524.23 458.84 537.67C454.75 552.09 440.44 602.58 438.4 609.79Z" id="a4JqEZbeK"></path><path d="M195.05 233.37C199.87 229.38 223.97 209.45 267.35 173.56C377.62 173.56 438.89 173.56 451.14 173.56C456.5 173.55 460.84 169.21 460.84 163.85C460.84 148.44 460.84 25.11 460.84 9.7C460.83 4.34 456.49 0 451.14 0C424.91 0 215.09 0 188.87 0C183.51 0 179.17 4.34 179.17 9.7C179.17 31.32 179.17 204.3 179.17 225.92C179.18 229.67 181.34 233.09 184.74 234.69C188.14 236.29 192.16 235.78 195.05 233.37ZM441.44 19.4L441.44 154.15C334.88 154.15 275.68 154.15 263.84 154.15C261.58 154.16 259.39 154.95 257.65 156.39C253.71 159.65 234.02 175.96 198.56 205.3L198.56 19.4L441.44 19.4Z" id="b1yBlLkJNQ"></path></defs><g><g><g><use xlink:href="#a38b7kvfVO" opacity="1" fill="#fadd4b" fill-opacity="1"></use><g><use xlink:href="#a38b7kvfVO" opacity="1" fill-opacity="0" stroke="#000000" stroke-width="1" stroke-opacity="0"></use></g></g><g><use xlink:href="#gfbUxftG2" opacity="1" fill="#fadd4b" fill-opacity="1"></use><g><use xlink:href="#gfbUxftG2" opacity="1" fill-opacity="0" stroke="#000000" stroke-width="1" stroke-opacity="0"></use></g></g><g><use xlink:href="#c8719CjWg" opacity="1" fill="#fadd4b" fill-opacity="1"></use><g><use xlink:href="#c8719CjWg" opacity="1" fill-opacity="0" stroke="#000000" stroke-width="1" stroke-opacity="0"></use></g></g><g><use xlink:href="#a7rjaPrxX" opacity="1" fill="#fadd4b" fill-opacity="1"></use><g><use xlink:href="#a7rjaPrxX" opacity="1" fill-opacity="0" stroke="#000000" stroke-width="1" stroke-opacity="0"></use></g></g><g><use xlink:href="#c1TGpV9lp3" opacity="1" fill="#fadd4b" fill-opacity="1"></use><g><use xlink:href="#c1TGpV9lp3" opacity="1" fill-opacity="0" stroke="#000000" stroke-width="1" stroke-opacity="0"></use></g></g><g><use xlink:href="#b2cyh2UeHL" opacity="1" fill="#fadd4b" fill-opacity="1"></use><g><use xlink:href="#b2cyh2UeHL" opacity="1" fill-opacity="0" stroke="#000000" stroke-width="1" stroke-opacity="0"></use></g></g><g><use xlink:href="#a4JqEZbeK" opacity="1" fill="#fadd4b" fill-opacity="1"></use><g><use xlink:href="#a4JqEZbeK" opacity="1" fill-opacity="0" stroke="#000000" stroke-width="1" stroke-opacity="0"></use></g></g><g><use xlink:href="#b1yBlLkJNQ" opacity="1" fill="#fadd4b" fill-opacity="1"></use><g><use xlink:href="#b1yBlLkJNQ" opacity="1" fill-opacity="0" stroke="#000000" stroke-width="1" stroke-opacity="0"></use></g></g></g></g></svg>