<?xml version="1.0" encoding="UTF-8" standalone="no"?>
<!DOCTYPE svg PUBLIC "-//W3C//DTD SVG 1.1//EN" "http://www.w3.org/Graphics/SVG/1.1/DTD/svg11.dtd">
<svg version="1.1" xmlns="http://www.w3.org/2000/svg" xmlns:xlink="http://www.w3.org/1999/xlink" preserveAspectRatio="xMidYMid meet" viewBox="0 0 640 640" width="640" height="640"><defs><path d="M600.92 471.01C603.98 459.21 599.09 446.79 588.81 440.24C582.46 435.37 574.44 434.95 564.11 437.35C564.11 432.58 564.11 394.42 564.11 389.65C564.18 347.35 533.72 311.16 492.02 304.02C485.59 302.91 434.17 294.03 427.75 292.92C411.43 290.1 398.31 277.94 394.26 261.88C393.76 259.92 389.81 244.26 389.31 242.3C421.37 216.51 442.53 172.62 442.53 122.95C442.53 49.55 394.44 0.24 322.88 0.24C251.32 0.24 203.22 49.55 203.22 122.95C203.22 172.61 224.34 216.44 256.35 242.25C255.86 244.21 251.9 259.92 251.41 261.88C247.35 277.94 234.22 290.1 217.9 292.92C211.48 294.03 160.06 302.91 153.63 304.02C111.93 311.16 81.47 347.35 81.54 389.65C81.54 391.44 81.54 400.37 81.54 416.44C38.44 416.44 14.49 416.44 9.7 416.44C4.35 416.44 0.01 420.77 0 426.13C0 443.57 0 583.11 0 600.55C0.01 605.9 4.35 610.24 9.7 610.24C17.7 610.24 81.68 610.24 89.68 610.24C155.18 629.91 223.21 639.86 291.6 639.76C391.35 639.76 512.13 617.53 616.32 534.92C618.64 533.32 639.06 518.7 639.97 499.5C640.27 493.02 638.43 483.47 627.92 474.64C620.74 468.61 612.19 468.13 600.92 471.01ZM19.4 590.85L19.4 435.82L81.54 435.82L81.54 590.85L19.4 590.85ZM582.42 463.85C582.6 468.55 578.42 475.34 571.57 481.8C569.42 482.7 567.37 483.57 565.07 484.53C527.94 500.98 489.49 514.29 450.13 524.31C451.16 521.31 451.77 518.19 451.95 515.02C452.25 510.03 452.02 505.02 451.26 500.08C478.2 492.05 504.58 482.27 530.25 470.81C548.02 463.21 572.35 452.74 577.01 455.63C582.25 459.64 582.38 462.8 582.42 463.85ZM433.04 313.52C466.44 319.3 485 322.51 488.71 323.15C521.1 328.69 544.77 356.8 544.72 389.66C544.72 395.07 544.72 438.35 544.72 443.77C538.08 446.37 530.75 449.52 522.63 453.01C497.43 464.27 471.52 473.86 445.06 481.72C443.44 479.03 441.51 476.53 439.31 474.28C430.41 465.97 418.62 461.46 406.44 461.7C381.8 462.52 357.12 461.75 332.58 459.41C332.58 451.91 332.58 414.4 332.58 346.87C356.81 368.13 370.28 379.95 372.97 382.31C374.74 383.86 377.02 384.71 379.37 384.72C379.78 384.72 380.18 384.69 380.58 384.64C383.34 384.29 385.81 382.77 387.36 380.46C393.46 371.54 408.68 349.22 433.04 313.52ZM322.88 313.78C289.24 291.27 270.56 278.77 266.82 276.27C268.23 273.16 269.36 269.94 270.22 266.64C270.55 265.34 273.18 254.93 273.51 253.63C304.13 270.89 341.54 270.91 372.17 253.67C372.5 254.97 375.12 265.34 375.44 266.64C376.3 269.94 377.44 273.16 378.83 276.27C371.37 281.27 352.72 293.77 322.88 313.78ZM389.43 292.53C395.87 299.67 403.9 305.2 412.86 308.69C410.51 312.14 398.72 329.41 377.51 360.5L338.75 326.49C365.78 308.38 382.67 297.06 389.43 292.53ZM229.61 80.63C243.97 88.42 272.71 100.31 314.28 100.31C339.58 100.1 364.71 96.14 388.84 88.55C393.96 86.99 396.84 81.57 395.28 76.45C393.71 71.33 388.3 68.45 383.17 70.01C305.44 93.69 255.67 73.03 238.01 63.16C254.85 35.68 284.6 19.64 322.88 19.64C383.78 19.64 423.14 60.19 423.14 122.95C423.14 191.44 378.15 247.17 322.88 247.17C267.61 247.17 222.6 191.44 222.6 122.95C222.45 108.55 224.82 94.22 229.61 80.63ZM306.97 326.49L268.12 360.5C246.92 329.42 235.14 312.15 232.79 308.69C241.76 305.21 249.79 299.67 256.24 292.53C263 297.06 279.91 308.38 306.97 326.49ZM156.94 323.14C160.65 322.5 179.21 319.29 212.61 313.51C240.01 353.68 255.24 376 258.28 380.46C259.85 382.76 262.31 384.28 265.07 384.64C265.47 384.69 265.88 384.72 266.29 384.72C268.64 384.71 270.91 383.85 272.68 382.31C275.38 379.94 288.88 368.12 313.18 346.83C313.18 412.41 313.18 448.84 313.18 456.13C303.07 453.74 293.44 449.67 284.69 444.08C263.11 431.43 238.4 417.15 100.94 416.49C100.94 414.7 100.94 405.76 100.94 389.65C116.68 349.01 135.35 326.84 156.94 323.14ZM100.94 593.48C100.94 577.72 100.94 451.63 100.94 435.87C233.34 436.46 255.37 449.39 274.85 460.83C294.85 472.55 312.19 482.64 407.17 481.09C413.96 480.96 420.54 483.43 425.58 487.99C430.96 493.4 433.33 502.11 432.6 513.87C432.42 516.74 431.88 525.38 414.82 532.23C414.67 532.28 414.26 532.47 414.18 532.49C396.03 539.55 356.03 545.59 268.58 534.29C263.28 533.56 258.39 537.27 257.66 542.57C256.93 547.88 260.64 552.77 265.94 553.5C265.99 553.51 266.05 553.52 266.1 553.52C294.8 557.5 323.73 559.66 352.71 559.99C381.61 559.99 404.1 556.95 420.19 550.88C420.26 550.88 420.3 550.88 420.3 550.88C472.72 540.4 523.81 524.14 572.64 502.39C592.52 493.94 611.28 486.04 615.44 489.5C620.23 493.53 620.66 496.6 620.58 498.57C620.23 506.78 609.14 516.3 604.79 519.35C406.49 676.55 145.27 606.92 100.94 593.48Z" id="p4W1qamaxr"></path><path d="M50.47 458.02C45.12 458.02 40.78 462.36 40.78 467.71C40.78 473.06 45.12 477.4 50.47 477.4C55.83 477.4 60.17 473.06 60.17 467.71C60.17 462.36 55.83 458.02 50.47 458.02Z" id="auWCnMaT5"></path></defs><g><g><g><use xlink:href="#p4W1qamaxr" opacity="1" fill="#fadd4b" fill-opacity="1"></use><g><use xlink:href="#p4W1qamaxr" opacity="1" fill-opacity="0" stroke="#000000" stroke-width="1" stroke-opacity="0"></use></g></g><g><use xlink:href="#auWCnMaT5" opacity="1" fill="#fadd4b" fill-opacity="1"></use><g><use xlink:href="#auWCnMaT5" opacity="1" fill-opacity="0" stroke="#000000" stroke-width="1" stroke-opacity="0"></use></g></g></g></g></svg>